<svg width="47" height="47" viewBox="0 0 47 47" fill="none" xmlns="http://www.w3.org/2000/svg">
<path d="M23.5 4.7C13.1177 4.7 4.69995 13.1177 4.69995 23.5C4.69995 32.3094 10.7661 39.6805 18.9441 41.7203C18.8564 41.4665 18.8 41.172 18.8 40.807V37.5937C18.037 37.5937 16.7586 37.5937 16.4374 37.5937C15.1512 37.5937 14.0075 37.0407 13.4529 36.013C12.8372 34.8709 12.7307 33.124 11.2048 32.0556C10.752 31.6999 11.0967 31.2942 11.6184 31.349C12.5819 31.6216 13.3809 32.2827 14.1329 33.2635C14.8817 34.2458 15.2342 34.4682 16.6333 34.4682C17.3116 34.4682 18.3268 34.4291 19.2825 34.2787C19.7963 32.9736 20.6847 31.772 21.7703 31.2049C15.51 30.561 12.5223 27.4464 12.5223 23.218C12.5223 21.3975 13.2978 19.6366 14.6154 18.153C14.183 16.6803 13.6394 13.677 14.7815 12.5333C17.5983 12.5333 19.3013 14.3601 19.7102 14.8536C21.1139 14.3726 22.6555 14.1 24.2754 14.1C25.8985 14.1 27.4464 14.3726 28.8533 14.8567C29.2575 14.3663 30.962 12.5333 33.7851 12.5333C34.9319 13.6786 34.382 16.6944 33.9449 18.1639C35.2547 19.6444 36.0255 21.4007 36.0255 23.218C36.0255 27.4433 33.0425 30.5563 26.7915 31.2033C28.5117 32.101 29.7666 34.6233 29.7666 36.5237V40.807C29.7666 40.9699 29.7306 41.0874 29.7118 41.2268C37.0375 38.6591 42.2999 31.7031 42.2999 23.5C42.2999 13.1177 33.8822 4.7 23.5 4.7Z" fill="#808080"/>
</svg>
