<svg width="47" height="47" viewBox="0 0 47 47" fill="none" xmlns="http://www.w3.org/2000/svg">
<path d="M15.6636 4.7C9.61779 4.7 4.69995 9.62239 4.69995 15.6697V31.3364C4.69995 37.3822 9.62234 42.3 15.6697 42.3H31.3363C37.3821 42.3 42.2999 37.3776 42.2999 31.3303V15.6636C42.2999 9.61784 37.3776 4.7 31.3302 4.7H15.6636ZM34.4666 10.9667C35.3314 10.9667 36.0333 11.6685 36.0333 12.5333C36.0333 13.3981 35.3314 14.1 34.4666 14.1C33.6018 14.1 32.9 13.3981 32.9 12.5333C32.9 11.6685 33.6018 10.9667 34.4666 10.9667ZM23.5 14.1C28.684 14.1 32.9 18.3159 32.9 23.5C32.9 28.6841 28.684 32.9 23.5 32.9C18.3159 32.9 14.1 28.6841 14.1 23.5C14.1 18.3159 18.3159 14.1 23.5 14.1ZM23.5 17.2333C21.8379 17.2333 20.244 17.8936 19.0687 19.0688C17.8935 20.244 17.2333 21.838 17.2333 23.5C17.2333 25.162 17.8935 26.756 19.0687 27.9312C20.244 29.1064 21.8379 29.7667 23.5 29.7667C25.162 29.7667 26.7559 29.1064 27.9312 27.9312C29.1064 26.756 29.7666 25.162 29.7666 23.5C29.7666 21.838 29.1064 20.244 27.9312 19.0688C26.7559 17.8936 25.162 17.2333 23.5 17.2333Z" fill="#808080"/>
</svg>
