<svg width="47" height="47" viewBox="0 0 47 47" fill="none" xmlns="http://www.w3.org/2000/svg">
<path d="M35.25 41.125H39.1667C42.398 41.125 45.0417 38.4813 45.0417 35.25V19.4267L33.2917 28.5917V39.1667C33.2917 40.2477 34.169 41.125 35.25 41.125ZM38.1875 5.875C36.6405 5.875 35.1717 6.38417 33.9575 7.32417L33.2917 7.85292V23.6371L45.0417 14.4525V12.7292C45.0417 8.94958 41.9671 5.875 38.1875 5.875ZM17.625 10.9079V26.6921L22.2957 30.3346C23.0046 30.8868 23.9975 30.8868 24.7044 30.3346L29.375 26.6921V10.9079L23.5 15.4904L17.625 10.9079ZM1.95837 35.25C1.95837 38.4813 4.60212 41.125 7.83337 41.125H11.75C12.831 41.125 13.7084 40.2477 13.7084 39.1667V28.5917L1.95837 19.4267V35.25ZM8.81254 5.875C5.03296 5.875 1.95837 8.94958 1.95837 12.7292V14.4525L13.7084 23.6371V7.85292L13.0425 7.32417C11.8284 6.38417 10.3596 5.875 8.81254 5.875Z" fill="#808080"/>
</svg>
